<?xml version="1.0" encoding="UTF-8"?><svg id="Layer_2" xmlns="http://www.w3.org/2000/svg" viewBox="0 0 1086.42 256.66"><defs><style>.cls-1{fill:#ffd215;}.cls-1,.cls-2,.cls-3{stroke-width:0px;}.cls-2{fill:#46259a;}.cls-3{fill:#29173f;}</style></defs><g id="Layer_1-2"><path class="cls-3" d="M268.46,55.63h-29.29v107.23h29.29c14.3,0,25.22-3.61,32.79-10.87,7.55-7.26,11.33-18.13,11.33-32.63v-20.22c0-14.5-3.78-25.39-11.33-32.63-7.57-7.26-18.5-10.89-32.79-10.89ZM294.2,119.97c0,8.49-2.09,14.98-6.27,19.47-4.2,4.49-10.63,6.73-19.3,6.73h-11.03v-73.83h11.03c8.67,0,15.1,2.22,19.3,6.67,4.18,4.44,6.27,11,6.27,19.69v21.28Z"/><path class="cls-3" d="M384.27,89.87c-5.5-3.21-11.93-4.82-19.3-4.82s-14.04,1.61-19.76,4.82c-5.72,3.23-10.15,7.74-13.33,13.56-3.17,5.81-4.75,12.7-4.75,20.68v1.83c0,7.86,1.61,14.74,4.82,20.6,3.23,5.88,7.72,10.41,13.49,13.64,5.77,3.23,12.43,4.82,20,4.82,6.84,0,12.5-1.1,16.99-3.28,4.49-2.2,8.1-4.86,10.8-7.97,2.71-3.12,4.78-6.05,6.21-8.82l-14.55-7.5c-1.43,3.17-3.52,5.99-6.29,8.51-2.75,2.49-6.98,3.76-12.7,3.76s-10.72-1.8-14.72-5.37c-3.98-3.57-6.07-8.32-6.27-14.24h56.82v-6.29c0-7.75-1.52-14.55-4.6-20.36-3.06-5.83-7.35-10.34-12.87-13.56ZM345.06,116.76c.82-5,2.91-8.98,6.29-11.95,3.37-2.97,7.86-4.44,13.47-4.44s9.82,1.47,13.25,4.44c3.43,2.97,5.33,6.95,5.74,11.95h-38.75Z"/><polygon class="cls-3" points="449.23 149.99 446.63 149.99 427.93 87.19 409.26 87.19 434.07 162.86 461.95 162.86 486.75 87.19 468.08 87.19 449.23 149.99"/><path class="cls-3" d="M546.9,121.05c-4.55-1.63-9.64-2.97-15.25-4l-4.75-.92c-3.78-.6-6.8-1.58-9.04-2.9-2.25-1.34-3.37-3.32-3.37-5.98s1.1-4.71,3.3-6.14c2.18-1.43,5.33-2.14,9.42-2.14s7.35.9,10.1,2.69c2.77,1.78,4.55,4.82,5.37,9.11l16.24-4.91c-1.65-6.32-5.21-11.38-10.72-15.16-5.52-3.78-12.52-5.66-20.99-5.66-8.89,0-16.08,1.98-21.52,5.98-5.48,3.98-8.21,9.64-8.21,16.99,0,4.8,1.3,8.76,3.92,11.88,2.6,3.12,6.05,5.57,10.34,7.35,4.29,1.8,9.04,3.19,14.24,4.22l4.75.77c4.69.92,8.19,2.03,10.48,3.37,2.31,1.32,3.45,3.37,3.45,6.12s-1.19,4.86-3.59,6.58c-2.4,1.74-5.99,2.6-10.8,2.6-3.17,0-6.1-.46-8.82-1.37-2.69-.92-4.97-2.49-6.82-4.75-1.83-2.24-3.12-5.32-3.83-9.18l-16.22,4.12c1.32,8.29,5.15,14.55,11.47,18.84,6.34,4.29,14.41,6.43,24.21,6.43s17.23-2.11,22.89-6.36c5.66-4.23,8.51-10.28,8.51-18.15,0-5.21-1.32-9.35-3.98-12.41-2.66-3.06-6.27-5.41-10.8-7.04Z"/><path class="cls-3" d="M642.25,59.15c-5-2.35-10.87-3.52-17.62-3.52h-45.81v107.23h18.53v-41.35h30.34c3.06,0,5.28.79,6.67,2.36,1.37,1.59,2.05,3.67,2.05,6.21v32.77h18.39v-35.38c0-4.29-1.14-7.72-3.45-10.26-2.29-2.55-5.43-3.94-9.42-4.14v-2.46c4.49-1.83,8.32-4.75,11.49-8.73,3.17-3.98,4.75-9.29,4.75-15.93v-1.69c0-5.92-1.39-11-4.22-15.25-2.8-4.23-6.71-7.52-11.71-9.88ZM639.79,89.34c0,4.69-1.5,8.45-4.51,11.25-3.02,2.8-7.19,4.22-12.48,4.22h-25.44v-32.48h25.44c5.41,0,9.59,1.41,12.56,4.22,2.95,2.8,4.44,6.62,4.44,11.42v1.37Z"/><path class="cls-3" d="M732.32,89.65c-5.92-3.08-12.67-4.6-20.22-4.6s-14.32,1.52-20.29,4.6c-5.98,3.06-10.69,7.5-14.1,13.33-3.43,5.81-5.13,12.76-5.13,20.82v2.46c0,8.07,1.7,14.99,5.13,20.75,3.41,5.77,8.12,10.23,14.1,13.33,5.98,3.12,12.74,4.67,20.29,4.67s14.3-1.56,20.22-4.67c5.92-3.1,10.59-7.55,14.02-13.33,3.41-5.76,5.13-12.68,5.13-20.75v-2.46c0-8.07-1.72-15.01-5.13-20.82-3.43-5.83-8.1-10.26-14.02-13.33ZM734.01,125.8c0,7.46-2.05,13.25-6.12,17.38-4.09,4.14-9.35,6.21-15.78,6.21s-11.69-2.07-15.78-6.21c-4.09-4.12-6.12-9.92-6.12-17.38v-1.54c0-7.44,2.03-13.25,6.12-17.38,4.09-4.14,9.35-6.21,15.78-6.21s11.69,2.07,15.78,6.21c4.07,4.12,6.12,9.93,6.12,17.38v1.54Z"/><path class="cls-3" d="M820.18,144.57c-3.23,3.21-7.94,4.82-14.17,4.82-4.2,0-7.94-.92-11.25-2.77-3.32-1.83-5.94-4.51-7.83-8.03-1.89-3.54-2.82-7.79-2.82-12.79v-1.54c0-5,.93-9.29,2.82-12.87,1.89-3.57,4.51-6.25,7.83-8.03,3.32-1.8,7.06-2.69,11.25-2.69s7.53.77,10.34,2.31c2.8,1.52,4.99,3.59,6.51,6.2,1.54,2.6,2.51,5.5,2.91,8.65l17.01-3.52c-.92-5.52-2.97-10.48-6.14-14.94-3.15-4.44-7.31-7.94-12.48-10.48-5.15-2.55-11.36-3.83-18.61-3.83s-14,1.52-19.92,4.6c-5.92,3.06-10.59,7.5-14,13.33-3.43,5.81-5.13,12.81-5.13,20.99v2.14c0,8.16,1.7,15.16,5.13,20.97,3.41,5.83,8.08,10.26,14,13.34,5.92,3.06,12.57,4.58,19.92,4.58s13.45-1.3,18.61-3.9c5.17-2.6,9.33-6.1,12.48-10.48,3.17-4.4,5.37-9.26,6.6-14.55l-17.01-4c-.82,5.11-2.82,9.27-6.05,12.5Z"/><polygon class="cls-3" points="931 87.19 907.87 87.19 880.61 115.84 878.01 115.84 878.01 55.63 860.39 55.63 860.39 162.86 878.01 162.86 878.01 132.06 880.61 132.06 909.41 162.86 932.23 162.86 894.39 123.8 931 87.19"/><path class="cls-3" d="M994.88,89.87c-5.5-3.21-11.93-4.82-19.3-4.82s-14.04,1.61-19.76,4.82c-5.72,3.23-10.15,7.74-13.33,13.56-3.17,5.81-4.75,12.7-4.75,20.68v1.83c0,7.86,1.61,14.74,4.82,20.6,3.23,5.88,7.72,10.41,13.49,13.64,5.77,3.23,12.43,4.82,19.98,4.82,6.86,0,12.52-1.1,17.01-3.28,4.49-2.2,8.1-4.86,10.8-7.97,2.71-3.12,4.78-6.05,6.21-8.82l-14.55-7.5c-1.43,3.17-3.52,5.99-6.29,8.51-2.75,2.49-7,3.76-12.7,3.76s-10.72-1.8-14.72-5.37c-3.98-3.57-6.07-8.32-6.27-14.24h56.82v-6.29c0-7.75-1.52-14.55-4.6-20.36-3.06-5.83-7.35-10.34-12.87-13.56ZM955.67,116.76c.81-5,2.91-8.98,6.29-11.95,3.35-2.97,7.86-4.44,13.47-4.44s9.82,1.47,13.25,4.44c3.43,2.97,5.33,6.95,5.74,11.95h-38.75Z"/><polygon class="cls-3" points="1058.15 148.29 1058.15 110.8 1058.15 110.8 1058.15 101.75 1079.91 101.75 1079.91 87.19 1058.15 87.19 1058.15 62.83 1040.54 62.83 1040.54 87.19 1020.78 87.19 1020.78 101.75 1040.54 101.75 1040.54 110.8 1040.54 110.8 1040.54 162.86 1044.03 162.86 1058.15 162.86 1086.42 162.86 1086.42 148.29 1058.15 148.29"/><path class="cls-2" d="M150.11,0C100.07,41.68,50.04,83.46,0,125.14l36.92,20.8c36-32.03,70.02-62.3,102.12-90.87-7.41,42.51-15.26,87.46-23.6,135.1l37.1,20.9c8.27-65.26,16.55-130.55,24.83-195.78L150.11,0Z"/><polygon class="cls-1" points="26.77 256.66 85.63 204.17 40.25 178.95 26.77 256.66"/></g></svg>